<svg id="icon-twitter" xmlns="http://www.w3.org/2000/svg" width="23" height="23" viewBox="0 0 23 23">
  <circle id="Ellipse_112" data-name="Ellipse 112" cx="11.5" cy="11.5" r="11.5" fill="#707070"/>
  <path id="Pfad_42759" data-name="Pfad 42759" d="M859.5,200.354s-1.351.146-1.95.265a2.633,2.633,0,0,0-4.485,2.4,7.463,7.463,0,0,1-5.425-2.75,2.634,2.634,0,0,0,.814,3.514,2.628,2.628,0,0,1-1.192-.329v.035a2.63,2.63,0,0,0,2.111,2.578,2.619,2.619,0,0,1-1.188.046,2.637,2.637,0,0,0,2.458,1.829,5.3,5.3,0,0,1-3.9,1.089,7.485,7.485,0,0,0,11.524-6.306c0-.114,0-.227-.008-.34C858.776,202.013,859.147,200.882,859.5,200.354Z" transform="translate(-841.5 -193.5)" fill="#fff"/>
</svg>
