<svg id="icon-linked-in" xmlns="http://www.w3.org/2000/svg" width="23" height="23" viewBox="0 0 23 23">
  <circle id="Ellipse_113" data-name="Ellipse 113" cx="11.5" cy="11.5" r="11.5" fill="#707070"/>
  <path id="Icon_awesome-linkedin-in" data-name="Icon awesome-linkedin-in" d="M2.418,10.8H.178V3.59H2.418ZM1.3,2.607A1.3,1.3,0,1,1,2.594,1.3,1.308,1.308,0,0,1,1.3,2.607ZM10.8,10.8H8.564V7.291c0-.837-.017-1.909-1.164-1.909-1.164,0-1.343.909-1.343,1.849V10.8H3.82V3.59H5.968v.984H6A2.353,2.353,0,0,1,8.118,3.409C10.384,3.409,10.8,4.9,10.8,6.84V10.8Z" transform="translate(6 5)" fill="#fff"/>
</svg>
