<svg id="Stratosfare-Logo" xmlns="http://www.w3.org/2000/svg" xmlns:xlink="http://www.w3.org/1999/xlink" width="182.608" height="39.299" viewBox="0 0 182.608 39.299">
  <defs>
    <clipPath id="clip-path">
      <path id="Pfad_38533" data-name="Pfad 38533" d="M562.549-587.776l-8.578,18.716,8.578-7.018,8.578,7.018Zm0,8.886a2.33,2.33,0,0,0-1.119.284h0l1.123-4.492s1.123,4.545,1.123,4.492h0A2.329,2.329,0,0,0,562.549-578.89Z" transform="translate(-553.971 587.776)" fill="#00dcb5"/>
    </clipPath>
  </defs>
  <g id="Gruppe_3179" data-name="Gruppe 3179">
    <path id="Pfad_38522" data-name="Pfad 38522" d="M609.7-581.635h2.542v12.548H609.7Zm8.053-3.639H604.184v-2.542h13.565Z" transform="translate(-538.693 588.003)" fill="#fff"/>
    <path id="Pfad_38523" data-name="Pfad 38523" d="M459.307-581.635h2.542v12.548h-2.542Zm8.054-3.639H453.8v-2.542h13.565Z" transform="translate(-437.951 588.003)" fill="#fff"/>
    <path id="Pfad_38524" data-name="Pfad 38524" d="M512-575.749h-4.415v6.662h-2.568v-9.2h7.01a3.362,3.362,0,0,0,3.5-3.478,3.369,3.369,0,0,0-3.5-3.5h-7.01v-2.542h7.01a5.836,5.836,0,0,1,6.127,6.047,5.786,5.786,0,0,1-3.5,5.511l4.04,7.171h-2.916Z" transform="translate(-472.266 588.003)" fill="#fff"/>
    <path id="Pfad_38525" data-name="Pfad 38525" d="M667.51-578.751c0-3.88-2.6-7.01-6.475-7.01-3.853,0-6.448,3.1-6.448,6.983s2.6,7.01,6.448,7.01c3.88,0,6.475-3.131,6.475-6.983m2.622,0c0,5.271-3.8,9.525-9.1,9.525-5.271,0-9.07-4.281-9.07-9.551s3.8-9.525,9.07-9.525c5.3,0,9.1,4.254,9.1,9.552" transform="translate(-570.7 588.329)" fill="#fff"/>
    <path id="Pfad_38526" data-name="Pfad 38526" d="M417.277-574.551c0,1.712-1.766,2.756-4.013,2.756a5.4,5.4,0,0,1-5.03-2.676l-2.435,1.017c1.016,2.3,3.665,4.254,7.545,4.254,4.308,0,6.635-2.515,6.635-5.432h0c0-3.4-2.836-4.548-6.635-5.619l0,.007-.024-.007c-2.97-.829-4.281-1.471-4.281-2.916,0-1.311,1.044-2.649,3.8-2.649.267,0,.616.027.856.053l1.445-2.3a8.259,8.259,0,0,0-2.381-.321c-3.879,0-6.368,2.087-6.448,5.137-.107,3.237,2.354,4.388,6.1,5.458,3.183.909,4.868,1.551,4.87,3.235Z" transform="translate(-405.799 588.383)" fill="#fff"/>
    <path id="Pfad_38527" data-name="Pfad 38527" d="M726.989-574.551c0,1.712-1.766,2.756-4.013,2.756a5.4,5.4,0,0,1-5.03-2.676l-2.435,1.017c1.016,2.3,3.665,4.254,7.545,4.254,4.308,0,6.635-2.515,6.635-5.432h0c0-3.4-2.836-4.548-6.635-5.619l0,.007-.024-.007c-2.97-.829-4.281-1.471-4.281-2.916,0-1.311,1.044-2.649,3.8-2.649.267,0,.616.027.856.053l1.445-2.3a8.259,8.259,0,0,0-2.381-.321c-3.879,0-6.368,2.087-6.448,5.137-.107,3.237,2.354,4.388,6.1,5.458,3.183.909,4.868,1.551,4.87,3.235Z" transform="translate(-613.268 588.383)" fill="#fff"/>
  </g>
  <path id="Pfad_38528" data-name="Pfad 38528" d="M820.017-569.371h12.442v-2.569H820.017Zm-49.9-10.622v10.622h2.568V-577.5h7.946v-2.488Zm49.9,2.488h11.451v-2.488H820.017Zm-49.9-8.053H782.4V-588.1H770.121Zm20.336-2.542-6.716,18.729h2.809l5.163-14.9,5.164,14.9h2.809L792.945-588.1Zm12.543,0v2.542h7.01a3.369,3.369,0,0,1,3.5,3.5,3.362,3.362,0,0,1-3.5,3.479H803v9.2h2.568v-6.662h4.415l3.773,6.662h2.916l-4.04-7.171a5.786,5.786,0,0,0,3.5-5.511,5.836,5.836,0,0,0-6.127-6.047Zm17.017,2.542h12.442V-588.1H820.017Z" transform="translate(-649.851 588.193)" fill="#00dcb5"/>
  <g id="Gruppe_3185" data-name="Gruppe 3185" transform="translate(48.915 0.2)">
    <path id="Pfad_38530" data-name="Pfad 38530" d="M562.549-587.776l-8.578,18.716,8.578-7.018,8.578,7.018Zm0,8.886a2.33,2.33,0,0,0-1.119.284h0l1.123-4.492s1.123,4.545,1.123,4.492h0A2.329,2.329,0,0,0,562.549-578.89Z" transform="translate(-553.971 587.776)" fill="#00dcb5"/>
    <g id="Gruppe_3182" data-name="Gruppe 3182" transform="translate(0 0)">
      <path id="Pfad_38531" data-name="Pfad 38531" d="M562.549-587.776l-8.578,18.716,8.578-7.018,8.578,7.018Zm0,8.886a2.33,2.33,0,0,0-1.119.284h0l1.123-4.492s1.123,4.545,1.123,4.492h0A2.329,2.329,0,0,0,562.549-578.89Z" transform="translate(-553.971 587.776)" fill="#00dcb5"/>
      <g id="Gruppe_3181" data-name="Gruppe 3181" clip-path="url(#clip-path)">
        <path id="Pfad_38532" data-name="Pfad 38532" d="M545.54-573.048a7.8,7.8,0,0,0,7.8,7.8,7.8,7.8,0,0,0,7.8-7.8,7.8,7.8,0,0,0-7.8-7.8,7.8,7.8,0,0,0-7.8,7.8" transform="translate(-548.323 583.134)" fill="#00dcb5"/>
      </g>
    </g>
    <g id="Gruppe_3184" data-name="Gruppe 3184" transform="translate(0 0)">
      <path id="Pfad_38534" data-name="Pfad 38534" d="M562.549-587.776l-8.578,18.716,8.578-7.018,8.578,7.018Zm0,8.886a2.33,2.33,0,0,0-1.119.284h0l1.123-4.492s1.123,4.545,1.123,4.492h0A2.329,2.329,0,0,0,562.549-578.89Z" transform="translate(-553.971 587.776)" fill="#00dcb5"/>
      <g id="Gruppe_3183" data-name="Gruppe 3183" clip-path="url(#clip-path)">
        <path id="Pfad_38535" data-name="Pfad 38535" d="M584.745-559.378a2.339,2.339,0,0,0,2.34,2.339,2.339,2.339,0,0,0,2.339-2.339,2.34,2.34,0,0,0-2.339-2.34,2.34,2.34,0,0,0-2.34,2.34" transform="translate(-574.586 570.32)" fill="#00dcb5"/>
      </g>
    </g>
  </g>
  <text id="powered_by_" data-name="powered by " transform="translate(70.212 37.299)" fill="#fff" font-size="11" font-family="Arial-BoldMT, Arial" font-weight="700"><tspan x="0" y="0">powered by </tspan></text>
  <rect id="Rechteck_1867" data-name="Rechteck 1867" width="37.834" height="12.92" transform="translate(134.554 26.379)" fill="#fff"/>
  <g id="Gruppe_3189" data-name="Gruppe 3189" transform="translate(133.643 24.891)">
    <g id="Gruppe_3191" data-name="Gruppe 3191" transform="translate(3.096 3.193)">
      <path id="Pfad_38539" data-name="Pfad 38539" d="M826.835-484.333h1.746v-9.015h-1.746Zm-6.305-4.3a15.654,15.654,0,0,0-.578,2.8c-.064-.693-.116-1.387-.205-2.081-.115-.886-.257-1.759-.4-2.645h-1.8l1.284,6.254h2.055c.1-.514.218-1.015.347-1.516.18-.719.4-1.425.514-2.144.064-.411.116-.822.167-1.245.052.514.1,1.027.193,1.528.09.539.231,1.066.347,1.605.128.578.244,1.169.372,1.76h2.016l1.271-6.254h-1.631c-.128.783-.269,1.567-.372,2.35s-.193,1.58-.27,2.376c-.051-.424-.115-.861-.193-1.284-.09-.514-.231-1.015-.359-1.528-.154-.629-.283-1.259-.4-1.9h-1.9Zm-6.755,2.067c-.013-.591,0-1.155,0-1.746a2.158,2.158,0,0,1,.115-.95.631.631,0,0,1,.565-.36.535.535,0,0,1,.372.141.941.941,0,0,1,.27.8c.026.552-.026,1.117-.026,1.657a4.435,4.435,0,0,1-.038,1.246.661.661,0,0,1-.591.449.634.634,0,0,1-.347-.1c-.27-.154-.321-.463-.321-1.13m-1.708-.128a3.235,3.235,0,0,0,.334,1.592,1.294,1.294,0,0,0,.4.449,2.907,2.907,0,0,0,1.746.437c1.541,0,2.029-.719,2.2-1.464a10.05,10.05,0,0,0,.09-2.158,4.411,4.411,0,0,0-.154-1.7,1.7,1.7,0,0,0-.308-.5,2.745,2.745,0,0,0-1.862-.68,2.911,2.911,0,0,0-1.888.629,2.211,2.211,0,0,0-.539,1.631c-.026.591-.026,1.181-.013,1.759M805-486.927c.5.27.745.359.886.629a.845.845,0,0,1,.077.334.574.574,0,0,1-.565.616c-.59,0-.578-.655-.578-1.092h-1.772a2.024,2.024,0,0,0,.462,1.657,1.921,1.921,0,0,0,1.284.526c.193.013.4.026.591.026a2.144,2.144,0,0,0,2.171-1.066,2.051,2.051,0,0,0,.205-.835,1.717,1.717,0,0,0-.539-1.246,4.919,4.919,0,0,0-.809-.527c-.244-.141-.475-.3-.719-.411a1.637,1.637,0,0,1-.745-.488.482.482,0,0,1-.1-.321.524.524,0,0,1,.526-.539.488.488,0,0,1,.321.116.844.844,0,0,1,.231.642c0,.077-.013.141-.013.206h1.708a2.344,2.344,0,0,0-.116-.9,1.442,1.442,0,0,0-.449-.642,2.329,2.329,0,0,0-1.644-.449,2.269,2.269,0,0,0-1.914.745,1.77,1.77,0,0,0-.359,1.066,1.623,1.623,0,0,0,.8,1.387c.154.09.321.18.488.257Zm-7.088-3.66v1.181h.9v3.557a2.69,2.69,0,0,0,.09.719,1.19,1.19,0,0,0,.334.5,1.467,1.467,0,0,0,1.066.347,7.849,7.849,0,0,0,1.233-.116v-1.1c-.141.013-.282.038-.424.038-.36,0-.539-.064-.565-.719v-3.236h.976V-490.6h-.95v-1.734l-1.746.8v.951Zm-2.491-1.336h1.644v-1.413h-1.644Zm0,7.577h1.682V-490.6h-1.682Z" transform="translate(-795.425 493.348)"/>
      <path id="Pfad_38540" data-name="Pfad 38540" d="M829.5-493.348c-.141.192-.282.385-.436.564s-.32.385-.474.577c-.205.244-.41.5-.615.756l.962.039c.167-.18.333-.359.526-.539.269-.257.564-.513.846-.769.218-.205.423-.423.628-.628Z" transform="translate(-821.029 493.348)"/>
    </g>
  </g>
</svg>
